<?xml version="1.0" encoding="UTF-8" standalone="no"?><!DOCTYPE svg PUBLIC "-//W3C//DTD SVG 1.1//EN" "http://www.w3.org/Graphics/SVG/1.1/DTD/svg11.dtd"><svg width="100%" height="100%" viewBox="0 0 2500 514" version="1.1" xmlns="http://www.w3.org/2000/svg" xmlns:xlink="http://www.w3.org/1999/xlink" xml:space="preserve" xmlns:serif="http://www.serif.com/" style="fill-rule:evenodd;clip-rule:evenodd;stroke-linejoin:round;stroke-miterlimit:2;"><g><path d="M263.472,314.258c-8.158,0 -14.992,2.643 -20.723,8.378c-5.731,5.735 -8.382,12.565 -8.382,20.723c0,8.158 2.647,14.992 8.382,20.286c5.952,5.731 12.786,8.378 20.723,8.378c8.158,0 15.212,-2.643 20.944,-8.378c5.731,-5.294 8.599,-12.128 8.599,-20.286c0,-8.378 -2.868,-14.992 -8.599,-20.723c-5.731,-5.731 -12.786,-8.378 -20.944,-8.378m-92.382,-312.859c113.987,0 133.391,42.99 133.391,104.285c0,22.451 -4.322,42.663 -15.486,59.22c-18.991,28.154 -57.761,45.727 -128.709,45.727l-38.803,0.221l0,91.495c0,11.246 1.324,16.761 3.971,22.929c2.864,7.275 9.04,12.79 18.297,16.536c6.614,2.426 16.761,3.75 29.988,4.187l0,16.319l-156.54,0l0,-16.319c13.227,-0.437 23.15,-1.765 29.763,-4.628c8.819,-3.75 14.771,-9.261 17.422,-16.536c2.422,-6.393 3.746,-7.496 3.746,-29.542l0,-281.107l-42.774,0l0,-12.569l145.735,-0.217m-20.065,195.347c68.791,0 102.962,-29.763 102.962,-87.97c0,-57.986 -18.962,-93.484 -105.829,-93.484l-26.895,0.437l0,181.234l29.763,0" style="fill:#321c0f;fill-rule:nonzero;"/></g><g><path d="M572.054,11.454l-48.95,0l0,240.098c0,90.176 -31.744,117.296 -112.222,117.296c-67.463,-0.217 -93.701,-26.234 -93.701,-59.967c0,-7.721 2.864,-32.631 27.557,-32.631c24.473,0 26.017,16.536 26.017,43.435c0,11.242 4.632,33.288 33.513,33.288c45.862,0 66.364,-20.944 66.364,-95.025l0,-246.495l-47.181,0l0,-12.79l148.603,0l0,12.79Zm9.922,300.069c-8.158,0 -15.212,2.643 -20.723,8.378c-5.731,5.731 -8.599,12.565 -8.599,20.723c0,8.158 2.868,14.992 8.599,20.286c5.731,5.731 12.565,8.378 20.723,8.378c8.158,0 14.992,-2.643 20.948,-8.378c5.731,-5.294 8.595,-12.128 8.595,-20.286c0,-8.378 -2.864,-14.992 -8.595,-20.723c-5.731,-5.731 -12.574,-8.378 -20.948,-8.378" style="fill:#321c0f;fill-rule:nonzero;"/></g><g><path d="M1071.965,322.592c-1.985,-6.393 -3.088,-14.334 -3.088,-24.473l0,-285.298l37.7,0l0,-12.79l-91.94,0c-1.107,3.309 -110.682,275.821 -110.682,275.821c-0.49,0.895 -1.409,1.479 -2.426,1.544c-1.324,0 -2.206,-0.662 -2.643,-1.544c0,0 -116.413,-272.512 -117.733,-275.821l-102.083,0l0,12.565l42.337,0l0,274.277c0,0 -0.882,25.355 -0.882,25.576c-0.662,6.614 -2.868,12.569 -6.176,17.418c-3.525,5.074 -9.04,9.04 -16.315,11.687c-4.853,1.544 -12.124,2.643 -20.944,2.864l0,16.315l103.844,0l0,-16.315c-8.595,-0.437 -12.345,-1.319 -17.418,-2.864c-7.496,-2.426 -13.011,-6.176 -16.757,-11.467c-3.309,-4.853 -5.515,-10.805 -6.176,-17.859c0,0 -1.103,-25.355 -1.103,-25.576l0,-236.136l5.952,0c0,0 131.405,306.908 132.949,310.437l11.021,0l124.571,-306.908l3.088,0l0,244.069c0,10.584 -1.107,18.962 -3.088,25.355c-2.426,7.496 -7.717,13.011 -15.433,16.757c-5.731,2.643 -14.33,3.971 -25.792,4.408l0,16.319l141.989,0l0,-16.319c-11.467,-0.658 -20.286,-1.981 -26.238,-4.628c-8.815,-4.183 -14.109,-9.918 -16.532,-17.414m190.931,-225.989c70.11,0 122.141,47.843 122.141,135.592c0,112.663 -81.132,139.338 -123.685,139.338c-21.605,0 -121.483,-8.378 -121.483,-136.916c-0.217,-87.745 47.406,-138.015 123.027,-138.015m-0.878,259.06c50.931,0 66.585,-31.748 66.585,-124.13c0,-64.158 -0.225,-118.84 -66.585,-118.84c-61.295,0 -65.703,52.917 -65.703,123.468c0,91.058 8.595,119.502 65.703,119.502m321.234,-255.094c-45.196,0 -60.85,26.679 -73.423,54.02c0,0 -3.309,-0.221 -3.525,-0.221c-0.221,0.221 -9.04,-51.593 -9.04,-51.593l-85.989,0l0,13.672l47.185,0l0,177.704c0,17.635 -0.882,31.307 -5.515,38.803c-5.29,8.599 -16.095,11.908 -34.175,11.908l-7.717,0l0,16.315l147.059,0l0,-16.315l-7.937,0c-19.179,0 -29.101,-4.187 -34.171,-12.569c-4.632,-7.271 -6.834,-19.841 -6.834,-38.141l0,-92.161c0,-31.087 24.914,-66.806 53.133,-66.806c29.542,0 30.425,42.333 62.177,27.124c22.488,-10.588 17.418,-61.74 -41.23,-61.74m585.368,233.926c9.261,0 20.507,-9.702 22.929,-27.998l8.819,0c-2.426,41.891 -22.929,58.648 -57.104,58.648c-30.425,0 -47.181,-21.609 -50.049,-39.469c-17.855,18.962 -44.318,42.778 -86.209,42.778c-37.7,0 -67.022,-29.105 -68.787,-62.177c-5.069,-84.665 106.27,-93.701 153.231,-97.892l0,-43.215c0,-15.654 -3.525,-28.219 -10.359,-37.7c-7.275,-9.922 -20.286,-14.771 -38.807,-14.771c-15.874,0 -27.557,3.971 -35.053,11.683c-7.059,7.496 -10.143,15.654 -12.345,29.767c-3.088,19.179 -11.246,26.675 -25.797,26.675c-6.393,0 -11.467,-1.765 -16.091,-5.731c-4.412,-3.746 -6.614,-9.261 -6.614,-17.198c0,-16.977 6.614,-28.664 23.37,-41.446c17.198,-13.227 44.097,-19.841 80.474,-19.841c37.921,0 64.158,7.055 77.606,20.723c13.672,13.668 17.422,29.542 17.422,52.692l0,108.031l0.882,33.076c1.757,14.771 6.605,23.366 22.48,23.366m-76.949,-110.237c-36.16,0 -101.863,24.032 -101.863,72.096c0,14.992 5.294,44.975 41.45,44.975c14.109,0 33.288,-8.158 58.427,-31.083l1.103,-1.107c0.882,-0.662 0.882,-1.103 0.882,-1.981l0,-82.9Zm377.243,108.697c-6.393,-7.933 -7.721,-25.355 -7.721,-38.583l0,-116.85c0,-16.977 -2.202,-31.307 -8.595,-43.215c-6.393,-11.467 -15.433,-20.282 -26.679,-26.013c-11.467,-5.731 -24.469,-8.599 -38.803,-8.599c-51.593,0 -74.081,29.767 -84.22,49.828l-3.971,0l-9.04,-46.74l-80.037,0l0,13.448l40.127,0l0,177.929c0,13.672 -1.103,23.591 -3.088,30.208c-2.202,7.933 -7.271,13.227 -14.771,16.536c-4.849,1.981 -12.345,3.309 -22.042,3.746l0,16.319l126.993,0l0,-16.319c-12.786,-1.103 -21.385,-4.408 -26.013,-11.021c-5.074,-7.059 -7.275,-18.962 -7.275,-36.601l0,-68.125c0,-28.444 -0.225,-56.005 9.477,-73.203c10.584,-18.517 29.763,-28.881 51.148,-28.881c19.404,0 29.767,6.176 35.94,18.521c6.838,13.889 8.378,39.685 8.378,60.188l0,84.444c0,14.109 -0.437,24.252 -1.319,30.866c-1.544,7.721 -3.309,14.114 -9.481,18.08c-4.408,3.088 -11.242,5.074 -20.282,5.731l0,16.095l122.361,0l0,-16.328c-15.654,-0.662 -24.914,-3.305 -31.087,-11.462m-574.126,-246.716c13.889,-4.408 25.355,-1.103 29.101,14.555c1.765,7.496 0.225,16.536 -4.187,24.469c-4.187,7.937 -11.467,13.672 -22.929,17.198c-9.922,3.309 -20.507,3.309 -32.19,0.662c5.515,11.908 10.139,28.664 10.139,48.284c0,68.346 -52.251,88.852 -108.031,97.451c-56.883,8.815 -71.434,15.654 -71.434,33.509c0,12.128 7.496,19.183 46.961,19.183c81.577,3.971 117.958,-0.662 143.533,34.395c7.933,11.242 11.904,26.238 11.904,44.98c0,13.668 -3.525,27.998 -11.242,41.891c-7.275,13.885 -20.948,26.013 -40.572,35.935c-19.624,9.922 -46.961,15.217 -80.474,15.217c-25.355,0 -43.656,-1.985 -71.434,-10.364c-18.08,-5.29 -41.891,-19.841 -41.891,-50.486c0,-9.265 1.544,-16.977 5.731,-23.591c4.632,-7.059 14.109,-11.246 22.047,-9.922c14.109,2.426 18.297,15.212 15.874,27.337c-2.864,11.908 -0.221,28.664 13.452,37.038c18.517,11.467 38.803,14.109 63.717,14.109c29.105,0 52.475,-5.069 69.673,-14.551c18.521,-10.364 27.561,-24.257 27.561,-41.45c0,-12.565 -4.412,-22.267 -13.011,-28.881c-8.158,-5.952 -19.404,-9.922 -33.292,-11.683c-13.011,-1.544 -33.072,-2.643 -61.07,-2.868c-32.19,-0.658 -57.766,-4.408 -76.066,-11.904c-16.536,-6.834 -29.322,-18.962 -29.322,-41.45c0,-37.259 34.833,-48.725 74.081,-56.663c2.426,-0.437 2.426,-3.746 -0.441,-4.187c-46.078,-9.702 -67.022,-36.16 -67.022,-90.396c0,-46.52 31.528,-97.447 103.182,-97.447c44.318,0 69.673,14.992 82.9,27.12c3.971,3.084 13.011,2.864 18.301,1.319c5.29,-1.765 9.261,-7.717 11.242,-18.297c2.643,-11.475 7.488,-18.088 15.208,-20.515m-126.336,188.068c31.307,0 53.799,-9.481 53.799,-81.136c0,-50.049 -12.128,-82.68 -53.799,-82.68c-35.715,0 -52.475,35.719 -52.475,83.562c-0.217,68.125 18.962,80.253 52.475,80.253" style="fill:#321c0f;fill-rule:nonzero;"/></g></svg>