<?xml version="1.0" encoding="UTF-8" standalone="no"?>
<!DOCTYPE svg PUBLIC "-//W3C//DTD SVG 1.1//EN" "http://www.w3.org/Graphics/SVG/1.1/DTD/svg11.dtd">
<svg width="100%" height="100%" viewBox="0 0 2500 514" version="1.1" xmlns="http://www.w3.org/2000/svg" xmlns:xlink="http://www.w3.org/1999/xlink" xml:space="preserve" xmlns:serif="http://www.serif.com/" style="fill-rule:evenodd;clip-rule:evenodd;stroke-linejoin:round;stroke-miterlimit:2;">
    <g transform="matrix(4.084967,0,0,4.084967,-319.914491,-1359.279871)">
        <path d="M142.813,409.682C140.816,409.682 139.143,410.329 137.74,411.733C136.337,413.137 135.688,414.809 135.688,416.806C135.688,418.803 136.336,420.476 137.74,421.772C139.197,423.175 140.87,423.823 142.813,423.823C144.81,423.823 146.537,423.176 147.94,421.772C149.343,420.476 150.045,418.803 150.045,416.806C150.045,414.755 149.343,413.136 147.94,411.733C146.537,410.33 144.81,409.682 142.813,409.682M120.198,333.094C148.102,333.094 152.852,343.618 152.852,358.623C152.852,364.119 151.794,369.067 149.061,373.12C144.412,380.012 134.921,384.314 117.553,384.314L108.054,384.368L108.054,406.766C108.054,409.519 108.378,410.869 109.026,412.379C109.727,414.16 111.239,415.51 113.505,416.427C115.124,417.021 117.608,417.345 120.846,417.452L120.846,421.447L82.525,421.447L82.525,417.452C85.763,417.345 88.192,417.02 89.811,416.319C91.97,415.401 93.427,414.052 94.076,412.271C94.669,410.706 94.993,410.436 94.993,405.039L94.993,336.224L84.522,336.224L84.522,333.147L120.198,333.094M115.286,380.915C132.126,380.915 140.491,373.629 140.491,359.38C140.491,345.185 135.849,336.495 114.584,336.495L108,336.602L108,380.968L115.286,380.968" style="fill:rgb(50,28,15);fill-rule:nonzero;"/>
    </g>
    <g transform="matrix(4.084967,0,0,4.084967,317.180262,-1362.014173)">
        <path d="M62.393,336.225L50.41,336.225L50.41,395.001C50.41,417.076 42.639,423.715 22.938,423.715C6.423,423.662 0,417.293 0,409.035C0,407.145 0.701,401.047 6.746,401.047C12.737,401.047 13.115,405.095 13.115,411.68C13.115,414.432 14.249,419.829 21.319,419.829C32.546,419.829 37.565,414.702 37.565,396.567L37.565,336.225L26.015,336.225L26.015,333.094L62.393,333.094L62.393,336.225ZM64.822,409.682C62.825,409.682 61.098,410.329 59.749,411.733C58.346,413.136 57.644,414.809 57.644,416.806C57.644,418.803 58.346,420.476 59.749,421.772C61.152,423.175 62.825,423.823 64.822,423.823C66.819,423.823 68.492,423.176 69.95,421.772C71.353,420.476 72.054,418.803 72.054,416.806C72.054,414.755 71.353,413.136 69.95,411.733C68.547,410.33 66.872,409.682 64.822,409.682" style="fill:rgb(50,28,15);fill-rule:nonzero;"/>
    </g>
    <g transform="matrix(4.084967,0,0,4.084967,0,-1360.647059)">
        <path d="M262.417,412.057C261.931,410.492 261.661,408.548 261.661,406.066L261.661,336.225L270.89,336.225L270.89,333.094L248.383,333.094C248.112,333.904 221.288,400.615 221.288,400.615C221.168,400.834 220.943,400.977 220.694,400.993C220.37,400.993 220.154,400.831 220.047,400.615C220.047,400.615 191.549,333.904 191.226,333.094L166.236,333.094L166.236,336.17L176.6,336.17L176.6,403.313C176.6,403.313 176.384,409.52 176.384,409.574C176.222,411.193 175.682,412.651 174.872,413.838C174.009,415.08 172.659,416.051 170.878,416.699C169.69,417.077 167.91,417.346 165.751,417.4L165.751,421.394L191.172,421.394L191.172,417.4C189.068,417.293 188.15,417.077 186.908,416.699C185.073,416.105 183.723,415.187 182.806,413.892C181.996,412.704 181.456,411.247 181.294,409.52C181.294,409.52 181.024,403.313 181.024,403.259L181.024,345.453L182.481,345.453C182.481,345.453 214.649,420.584 215.027,421.448L217.725,421.448L248.22,346.317L248.976,346.317L248.976,406.065C248.976,408.656 248.705,410.707 248.22,412.272C247.626,414.107 246.331,415.457 244.442,416.374C243.039,417.021 240.934,417.346 238.128,417.453L238.128,421.448L272.887,421.448L272.887,417.453C270.08,417.292 267.921,416.968 266.464,416.32C264.306,415.296 263.01,413.892 262.417,412.057M309.157,356.735C326.32,356.735 339.057,368.447 339.057,389.928C339.057,417.508 319.196,424.038 308.779,424.038C303.49,424.038 279.04,421.987 279.04,390.521C278.987,369.041 290.645,356.735 309.157,356.735M308.942,420.153C321.41,420.153 325.242,412.381 325.242,389.766C325.242,374.06 325.187,360.674 308.942,360.674C293.937,360.674 292.858,373.628 292.858,390.899C292.858,413.19 294.962,420.153 308.942,420.153M387.58,357.706C376.516,357.706 372.684,364.237 369.606,370.93C369.606,370.93 368.796,370.876 368.743,370.876C368.689,370.93 366.53,358.246 366.53,358.246L345.48,358.246L345.48,361.593L357.031,361.593L357.031,405.095C357.031,409.412 356.815,412.759 355.681,414.594C354.386,416.699 351.741,417.509 347.315,417.509L345.426,417.509L345.426,421.503L381.426,421.503L381.426,417.509L379.483,417.509C374.788,417.509 372.359,416.484 371.118,414.432C369.984,412.652 369.445,409.575 369.445,405.095L369.445,382.534C369.445,374.924 375.544,366.18 382.452,366.18C389.684,366.18 389.9,376.543 397.673,372.82C403.178,370.228 401.937,357.706 387.58,357.706M530.878,414.971C533.145,414.971 535.898,412.596 536.491,408.117L538.65,408.117C538.056,418.372 533.037,422.474 524.671,422.474C517.223,422.474 513.121,417.184 512.419,412.812C508.048,417.454 501.57,423.284 491.315,423.284C482.086,423.284 474.908,416.159 474.476,408.063C473.235,387.337 500.491,385.125 511.987,384.099L511.987,373.52C511.987,369.688 511.124,366.612 509.451,364.291C507.67,361.862 504.485,360.675 499.951,360.675C496.065,360.675 493.205,361.647 491.37,363.535C489.642,365.37 488.887,367.367 488.348,370.822C487.592,375.517 485.595,377.352 482.033,377.352C480.468,377.352 479.226,376.92 478.094,375.949C477.014,375.032 476.475,373.682 476.475,371.739C476.475,367.583 478.094,364.722 482.196,361.593C486.406,358.355 492.991,356.736 501.896,356.736C511.179,356.736 517.602,358.463 520.894,361.809C524.241,365.155 525.159,369.041 525.159,374.708L525.159,401.154L525.375,409.251C525.805,412.867 526.992,414.971 530.878,414.971M512.041,387.985C503.189,387.985 487.105,393.868 487.105,405.634C487.105,409.304 488.401,416.644 497.252,416.644C500.706,416.644 505.401,414.647 511.555,409.035L511.825,408.764C512.041,408.602 512.041,408.494 512.041,408.279L512.041,387.985ZM604.39,414.594C602.825,412.652 602.5,408.387 602.5,405.149L602.5,376.544C602.5,372.388 601.961,368.88 600.396,365.965C598.831,363.158 596.618,361 593.865,359.597C591.058,358.194 587.875,357.492 584.366,357.492C571.736,357.492 566.231,364.779 563.749,369.69L562.777,369.69L560.564,358.248L540.971,358.248L540.971,361.54L550.794,361.54L550.794,405.097C550.794,408.444 550.524,410.872 550.038,412.492C549.499,414.434 548.258,415.73 546.422,416.54C545.235,417.025 543.4,417.35 541.026,417.457L541.026,421.452L572.114,421.452L572.114,417.457C568.984,417.187 566.879,416.378 565.746,414.759C564.504,413.031 563.965,410.117 563.965,405.799L563.965,389.122C563.965,382.159 563.91,375.412 566.285,371.202C568.876,366.669 573.571,364.132 578.806,364.132C583.556,364.132 586.093,365.644 587.604,368.666C589.278,372.066 589.655,378.381 589.655,383.4L589.655,404.072C589.655,407.526 589.548,410.009 589.332,411.628C588.954,413.518 588.522,415.083 587.011,416.054C585.932,416.81 584.259,417.296 582.046,417.457L582.046,421.397L612,421.397L612,417.4C608.168,417.238 605.901,416.591 604.39,414.594M463.844,354.198C467.244,353.119 470.051,353.928 470.968,357.761C471.4,359.596 471.023,361.809 469.943,363.751C468.918,365.694 467.136,367.098 464.33,367.961C461.901,368.771 459.31,368.771 456.45,368.123C457.8,371.038 458.932,375.14 458.932,379.943C458.932,396.674 446.141,401.694 432.486,403.799C418.561,405.957 414.999,407.631 414.999,412.002C414.999,414.971 416.834,416.698 426.495,416.698C446.465,417.67 455.371,416.536 461.632,425.118C463.574,427.87 464.546,431.541 464.546,436.129C464.546,439.475 463.683,442.983 461.794,446.384C460.013,449.783 456.666,452.752 451.862,455.181C447.058,457.61 440.366,458.906 432.162,458.906C425.955,458.906 421.475,458.42 414.675,456.369C410.249,455.074 404.42,451.512 404.42,444.01C404.42,441.742 404.798,439.854 405.823,438.235C406.957,436.507 409.277,435.482 411.22,435.806C414.674,436.4 415.699,439.53 415.106,442.498C414.405,445.413 415.052,449.515 418.399,451.565C422.932,454.372 427.898,455.019 433.997,455.019C441.122,455.019 446.843,453.778 451.053,451.457C455.587,448.92 457.8,445.519 457.8,441.31C457.8,438.234 456.72,435.859 454.615,434.24C452.618,432.783 449.865,431.811 446.465,431.38C443.28,431.002 438.369,430.733 431.515,430.678C423.635,430.517 417.374,429.599 412.894,427.764C408.846,426.091 405.716,423.122 405.716,417.617C405.716,408.496 414.243,405.689 423.851,403.746C424.445,403.639 424.445,402.829 423.743,402.721C412.463,400.346 407.336,393.869 407.336,380.592C407.336,369.204 415.054,356.737 432.595,356.737C443.444,356.737 449.651,360.407 452.889,363.376C453.861,364.131 456.074,364.077 457.369,363.699C458.664,363.267 459.636,361.81 460.121,359.22C460.768,356.411 461.954,354.792 463.844,354.198M432.917,400.237C440.581,400.237 446.087,397.916 446.087,380.375C446.087,368.123 443.118,360.135 432.917,360.135C424.174,360.135 420.071,368.879 420.071,380.591C420.018,397.268 424.713,400.237 432.917,400.237" style="fill:rgb(50,28,15);fill-rule:nonzero;"/>
    </g>
</svg>
